<?xml version="1.0" encoding="UTF-8"?>
<svg id="Layer_1" data-name="Layer 1" xmlns="http://www.w3.org/2000/svg" viewBox="0 0 1000 1000">
  <defs>
    <style>
      .cls-1 {
        fill: #282828;
      }
    </style>
  </defs>
  <path class="cls-1" d="M299.3,672.98c-1.89,0-3.34-1.69-3.04-3.56l18.95-120.27c6.29-39.27,13.86-85.46,25.02-142.82h-1.28c-20.92,49.28-43.25,99.58-62.11,138.85l-56.02,118.86c-.51,1.08-1.59,1.77-2.79,1.77h-63.66c-1.64,0-2.99-1.28-3.08-2.91l-6.39-117.33c-2.05-37.22-4.49-88.42-6.03-139.23h-1.03c-11.16,51.97-21.17,103.94-30.16,142.82l-27.94,121.44c-.32,1.4-1.57,2.39-3,2.39H3.08c-2,0-3.47-1.88-2.99-3.82L84.29,329.36c.34-1.37,1.57-2.34,2.99-2.34h112.81c1.65,0,3.01,1.31,3.08,2.96l3.86,99.7c1.28,33.62,5,76.1,4.75,120.11h0c1.31,0,2.47-.82,2.9-2.06,15.17-43.35,34.55-87.12,49.07-118.83l44.74-100.07c.5-1.11,1.6-1.82,2.81-1.82h113.94c1.87,0,3.31,1.65,3.05,3.5l-47.27,339.8c-.21,1.52-1.51,2.66-3.05,2.66h-78.67Z"/>
  <path class="cls-1" d="M419.79,594.7c.37-1.7,2.08-2.77,3.77-2.32,10.16,2.67,22.38,4.85,36.57,4.85,30.05,0,49.12-14.27,57.7-60.36l39.3-207.34c.28-1.45,1.55-2.51,3.03-2.51h83.56l-42.17,220.45c-17.05,89.27-56.06,125.5-139.01,125.5h-84.56l41.82-78.28Z"/>
  <path class="cls-1" d="M870.99,672.98c-1.89,0-3.34-1.69-3.04-3.56l18.94-120.27c6.29-39.27,13.86-85.46,25.02-142.82h-1.28c-20.92,49.28-43.25,99.58-62.11,138.85l-56.01,118.86c-.51,1.08-1.59,1.77-2.79,1.77h-63.65c-1.64,0-2.99-1.28-3.08-2.91l-6.39-117.32c-2.05-37.22-4.49-88.42-6.03-139.23h-1.03c-11.16,51.97-21.17,103.94-30.16,142.82l-27.94,121.44c-.32,1.4-1.57,2.39-3,2.39h-73.68c-2,0-3.47-1.88-2.99-3.82l84.19-339.8c.34-1.38,1.57-2.34,2.99-2.34h112.81c1.66,0,3.02,1.31,3.08,2.96l3.86,99.7c1.28,33.62,5,76.1,4.75,120.11h0c1.31,0,2.47-.82,2.9-2.06,15.17-43.35,34.55-87.12,49.07-118.82l44.74-100.07c.5-1.11,1.6-1.82,2.81-1.82h113.93c1.87,0,3.31,1.65,3.05,3.51l-47.26,339.8c-.21,1.52-1.51,2.66-3.05,2.66h-78.66Z"/>
</svg>